<svg width="649" height="176" viewBox="0 0 649 176" fill="none" xmlns="http://www.w3.org/2000/svg">
<path d="M0.519911 176V50.763H2.77418L22.3112 98.353V176H0.519911ZM0.519911 14.4442V0.668154H18.3036L75.9126 140.182L116.99 47.2563H119.495V95.8483L84.1782 176H67.647L0.519911 14.4442ZM132.019 176V0.668154H153.81V176H132.019ZM164.901 144.44C164.901 153.624 169.41 161.389 178.427 167.734C186.108 173.078 195.125 175.75 205.478 175.75V156.213C190.95 155.879 183.603 150.368 183.436 139.681V132.918C183.603 129.245 184.605 126.573 186.442 124.903C188.446 123.066 197.379 120.228 213.243 116.387C225.599 113.381 233.948 110.71 238.29 108.372V137.177C238.29 148.03 233.03 154.292 222.51 155.962C220.84 156.129 219.254 156.213 217.751 156.213V175.75C229.44 175.583 238.624 172.66 245.303 166.983C250.48 172.827 257.242 175.75 265.592 175.75V155.962C261.25 155.628 258.996 152.873 258.829 147.696V79.0665C258.829 68.3796 254.738 59.0286 246.556 51.0134C238.874 43.6662 229.273 39.9926 217.751 39.9926V59.2791C225.599 59.2791 231.444 62.4518 235.284 68.7971C237.288 72.1368 238.29 75.8104 238.29 79.818V84.577C238.29 88.7515 228.354 93.594 208.484 99.1045C190.616 104.114 180.347 107.287 177.675 108.622C169.159 113.632 164.901 121.564 164.901 132.418V144.44ZM166.654 74.0571L185.189 81.0703C185.189 71.7193 189.03 65.207 196.711 61.5334C199.55 60.1975 202.556 59.5296 205.728 59.5296V39.9926C194.207 39.9926 184.355 44.1672 176.172 52.5163C169.827 58.8616 166.654 66.0419 166.654 74.0571ZM268.166 176L303.734 107.37L269.168 40.4935H290.459L315.757 85.3284L341.054 40.4935H362.595L328.03 107.37L363.347 176H342.056L315.757 128.911L289.457 176H268.166Z" fill="#66B5BC"/>
<path d="M478.204 175.75C503.752 175.917 519.95 159.135 526.796 125.404C528.8 114.884 529.802 103.279 529.802 90.5883C529.802 47.6738 521.453 20.2886 504.754 8.43285C497.407 3.25639 488.557 0.668154 478.204 0.668154V21.207C489.225 21.875 497.24 27.8863 502.25 39.2412C504.42 44.0837 505.506 48.8427 505.506 53.5182C505.506 70.0495 499.494 80.4859 487.472 84.8274C484.466 85.9963 481.377 86.6642 478.204 86.8312V107.37C482.713 107.37 486.887 106.786 490.728 105.617C494.735 104.281 497.574 103.029 499.244 101.86C500.914 100.691 502.917 99.021 505.255 96.8502L508.762 93.594C508.762 122.482 502.75 141.518 490.728 150.702C486.887 153.541 482.713 155.127 478.204 155.461V175.75ZM466.181 107.37V86.8312C453.324 85.9963 444.724 79.7345 440.382 68.0457C438.88 63.8711 438.128 59.2791 438.128 54.2696C438.128 44.4176 441.551 36.0685 448.398 29.2222C453.407 24.5467 459.335 21.875 466.181 21.207V0.668154C451.988 0.835137 440.048 6.59604 430.363 17.9509C421.847 28.1368 417.589 40.2431 417.589 54.2696C417.589 75.1424 424.436 90.2544 438.128 99.6054C445.976 104.782 455.327 107.37 466.181 107.37ZM422.599 148.197C429.612 161.89 439.965 170.573 453.658 174.247C457.832 175.416 462.007 176 466.181 176V155.461C456.83 155.294 449.149 151.12 443.138 142.937C441.635 141.101 440.466 139.18 439.631 137.177L422.599 148.197ZM586.729 176V155.211C579.048 154.042 572.786 147.446 567.944 135.423C563.435 123.901 561.181 109.123 561.181 91.0893V80.5694C561.682 56.5239 566.524 39.1577 575.709 28.4708C579.215 24.4632 582.972 22.2089 586.98 21.708V0.918628C569.614 1.58656 556.839 11.7725 548.657 31.4765C542.813 46.004 539.891 64.7895 539.891 87.8331C539.891 134.588 550.745 162.892 572.452 172.744C576.961 174.748 581.72 175.833 586.729 176ZM601.507 176C618.874 175.499 631.564 165.146 639.579 144.941C645.257 130.414 648.096 111.378 648.096 87.8331C648.096 42.7478 637.659 15.0287 616.786 4.67574C611.944 2.33798 606.767 1.08561 601.257 0.918628V21.708C608.938 22.7099 615.283 29.3057 620.293 41.4954C624.801 52.5163 627.056 65.5409 627.056 80.5694V91.0893C627.056 126.156 620.209 147.028 606.517 153.708C604.847 154.376 603.177 154.877 601.507 155.211V176Z" fill="#C97B06"/>
</svg>
