<svg width="88" height="32" viewBox="0 0 88 32" fill="none" xmlns="http://www.w3.org/2000/svg">
<path d="M87.4388 0.695648L23.4666 27.9374C18.1611 30.182 13.7059 31.3043 10.1008 31.3043C6.01969 31.3043 3.06085 29.8759 1.22433 27.0191C0.067998 25.1826 -0.272099 22.8529 0.204037 20.0301C0.680172 17.2073 1.93853 14.1975 3.97911 11.0006C5.67959 8.41584 8.46838 5.01487 12.3455 0.797677C10.9851 2.9743 10.0328 5.21893 9.48867 7.53159C8.46838 11.8848 9.38665 15.0817 12.2435 17.1223C13.6038 18.0746 15.4744 18.5507 17.855 18.5507C19.7596 18.5507 21.9022 18.2446 24.2829 17.6325L87.4388 0.695648Z" fill="white"/>
</svg>
